# xmcd
#
# Track frame offsets:
#	150
#	10986
#	21602
#	37169
#	54638
#	69180
#	85538
#	95388
#	110882
#	131228
#	145244
#	159674
#	171042
#
# Disc length: 2548 seconds
#
# Revision: 0
# Processed by: cddbd v1.5.2PL0 Copyright (c) Steve Scherf et al.
# Submitted via: EasyCDDAExtractor 10.0.2.1
#
DISCID=b509f20d
DTITLE=The Banty Roosters - Songs We Like
DYEAR=2011
DGENRE=Blues
TTITLE0=Key to the Highway
TTITLE1=Meat Shakin Woman
TTITLE2=Love in Vain
TTITLE3=Waiting for the Man
TTITLE4=Tamp em up Solid
TTITLE5=Don´t you ever let Nobody Drag your Spirit Down
TTITLE6=Salty Dog
TTITLE7=Weeping Willow Blues
TTITLE8=Sitting on Top of the World
TTITLE9=Diddy Wa Diddy
TTITLE10=Walkin the Dog
TTITLE11=Black Horse Blues
TTITLE12=Hellhound on my Trail
EXTD=
EXTT0=
EXTT1=
EXTT2=
EXTT3=
EXTT4=
EXTT5=
EXTT6=
EXTT7=
EXTT8=
EXTT9=
EXTT10=
EXTT11=
EXTT12=
PLAYORDER=
